<mxfile host="app.diagrams.net" modified="2024-04-20T15:52:47.823Z" agent="Mozilla/5.0 (Macintosh; Intel Mac OS X 10_15_7) AppleWebKit/537.36 (KHTML, like Gecko) Chrome/124.0.0.0 Safari/537.36" etag="sNAiPKiMrdE-0fn8SoaF" version="24.2.7" type="device">
  <diagram name="PÃ¡gina-1" id="et5wK8TyxKiBlEwQvI7H">
    <mxGraphModel dx="909" dy="615" grid="1" gridSize="10" guides="1" tooltips="1" connect="1" arrows="1" fold="1" page="1" pageScale="1" pageWidth="1169" pageHeight="1654" background="#FFFFFF" math="0" shadow="0">
      <root>
        <mxCell id="0" />
        <mxCell id="1" parent="0" />
        <mxCell id="M__xc0VcjDYkkTv1wkbK-3" style="edgeStyle=orthogonalEdgeStyle;rounded=0;orthogonalLoop=1;jettySize=auto;html=1;entryX=0.5;entryY=0;entryDx=0;entryDy=0;strokeColor=#FFFFFF;" edge="1" parent="1" source="M__xc0VcjDYkkTv1wkbK-1" target="M__xc0VcjDYkkTv1wkbK-2">
          <mxGeometry relative="1" as="geometry" />
        </mxCell>
        <mxCell id="M__xc0VcjDYkkTv1wkbK-1" value="Start" style="ellipse;whiteSpace=wrap;html=1;" vertex="1" parent="1">
          <mxGeometry x="270" width="120" height="80" as="geometry" />
        </mxCell>
        <mxCell id="M__xc0VcjDYkkTv1wkbK-6" style="edgeStyle=orthogonalEdgeStyle;rounded=0;orthogonalLoop=1;jettySize=auto;html=1;entryX=0.5;entryY=0;entryDx=0;entryDy=0;strokeColor=#FFFFFF;" edge="1" parent="1" source="M__xc0VcjDYkkTv1wkbK-2" target="M__xc0VcjDYkkTv1wkbK-5">
          <mxGeometry relative="1" as="geometry" />
        </mxCell>
        <mxCell id="M__xc0VcjDYkkTv1wkbK-2" value="int i = 0;" style="rounded=1;whiteSpace=wrap;html=1;" vertex="1" parent="1">
          <mxGeometry x="270" y="110" width="120" height="40" as="geometry" />
        </mxCell>
        <mxCell id="M__xc0VcjDYkkTv1wkbK-9" style="edgeStyle=orthogonalEdgeStyle;rounded=0;orthogonalLoop=1;jettySize=auto;html=1;entryX=0.5;entryY=0;entryDx=0;entryDy=0;strokeColor=#FFFFFF;" edge="1" parent="1" source="M__xc0VcjDYkkTv1wkbK-5" target="M__xc0VcjDYkkTv1wkbK-8">
          <mxGeometry relative="1" as="geometry" />
        </mxCell>
        <mxCell id="M__xc0VcjDYkkTv1wkbK-18" value="true" style="edgeLabel;html=1;align=center;verticalAlign=middle;resizable=0;points=[];" vertex="1" connectable="0" parent="M__xc0VcjDYkkTv1wkbK-9">
          <mxGeometry x="-0.598" relative="1" as="geometry">
            <mxPoint as="offset" />
          </mxGeometry>
        </mxCell>
        <mxCell id="M__xc0VcjDYkkTv1wkbK-20" style="edgeStyle=orthogonalEdgeStyle;rounded=0;orthogonalLoop=1;jettySize=auto;html=1;exitX=1;exitY=0.5;exitDx=0;exitDy=0;entryX=0;entryY=0.5;entryDx=0;entryDy=0;strokeColor=#FFFFFF;" edge="1" parent="1" source="M__xc0VcjDYkkTv1wkbK-5" target="M__xc0VcjDYkkTv1wkbK-19">
          <mxGeometry relative="1" as="geometry" />
        </mxCell>
        <mxCell id="M__xc0VcjDYkkTv1wkbK-21" value="false" style="edgeLabel;html=1;align=center;verticalAlign=middle;resizable=0;points=[];" vertex="1" connectable="0" parent="M__xc0VcjDYkkTv1wkbK-20">
          <mxGeometry x="-0.198" y="-1" relative="1" as="geometry">
            <mxPoint as="offset" />
          </mxGeometry>
        </mxCell>
        <mxCell id="M__xc0VcjDYkkTv1wkbK-5" value="i &amp;lt; 9" style="rhombus;whiteSpace=wrap;html=1;" vertex="1" parent="1">
          <mxGeometry x="260" y="200" width="140" height="80" as="geometry" />
        </mxCell>
        <mxCell id="M__xc0VcjDYkkTv1wkbK-11" style="edgeStyle=orthogonalEdgeStyle;rounded=0;orthogonalLoop=1;jettySize=auto;html=1;entryX=0.5;entryY=0;entryDx=0;entryDy=0;strokeColor=#FFFFFF;" edge="1" parent="1" source="M__xc0VcjDYkkTv1wkbK-8" target="M__xc0VcjDYkkTv1wkbK-10">
          <mxGeometry relative="1" as="geometry" />
        </mxCell>
        <mxCell id="M__xc0VcjDYkkTv1wkbK-8" value="int j = 0;" style="rounded=1;whiteSpace=wrap;html=1;" vertex="1" parent="1">
          <mxGeometry x="80" y="270" width="120" height="30" as="geometry" />
        </mxCell>
        <mxCell id="M__xc0VcjDYkkTv1wkbK-16" style="edgeStyle=orthogonalEdgeStyle;rounded=0;orthogonalLoop=1;jettySize=auto;html=1;exitX=0;exitY=0.5;exitDx=0;exitDy=0;entryX=0.5;entryY=0;entryDx=0;entryDy=0;strokeColor=#FFFFFF;" edge="1" parent="1" source="M__xc0VcjDYkkTv1wkbK-10" target="M__xc0VcjDYkkTv1wkbK-14">
          <mxGeometry relative="1" as="geometry" />
        </mxCell>
        <mxCell id="M__xc0VcjDYkkTv1wkbK-17" value="false" style="edgeLabel;html=1;align=center;verticalAlign=middle;resizable=0;points=[];" vertex="1" connectable="0" parent="M__xc0VcjDYkkTv1wkbK-16">
          <mxGeometry x="-0.5675" y="-2" relative="1" as="geometry">
            <mxPoint as="offset" />
          </mxGeometry>
        </mxCell>
        <mxCell id="M__xc0VcjDYkkTv1wkbK-25" style="edgeStyle=orthogonalEdgeStyle;rounded=0;orthogonalLoop=1;jettySize=auto;html=1;entryX=0.5;entryY=0;entryDx=0;entryDy=0;strokeColor=#FFFFFF;" edge="1" parent="1" source="M__xc0VcjDYkkTv1wkbK-10" target="M__xc0VcjDYkkTv1wkbK-24">
          <mxGeometry relative="1" as="geometry" />
        </mxCell>
        <mxCell id="M__xc0VcjDYkkTv1wkbK-26" value="true" style="edgeLabel;html=1;align=center;verticalAlign=middle;resizable=0;points=[];" vertex="1" connectable="0" parent="M__xc0VcjDYkkTv1wkbK-25">
          <mxGeometry x="-0.8957" y="2" relative="1" as="geometry">
            <mxPoint as="offset" />
          </mxGeometry>
        </mxCell>
        <mxCell id="M__xc0VcjDYkkTv1wkbK-10" value="j &amp;lt; 9" style="rhombus;whiteSpace=wrap;html=1;" vertex="1" parent="1">
          <mxGeometry x="70" y="330" width="140" height="80" as="geometry" />
        </mxCell>
        <mxCell id="M__xc0VcjDYkkTv1wkbK-15" style="edgeStyle=orthogonalEdgeStyle;rounded=0;orthogonalLoop=1;jettySize=auto;html=1;entryX=0.5;entryY=0;entryDx=0;entryDy=0;strokeColor=#FFFFFF;" edge="1" parent="1" source="M__xc0VcjDYkkTv1wkbK-14" target="M__xc0VcjDYkkTv1wkbK-5">
          <mxGeometry relative="1" as="geometry">
            <Array as="points">
              <mxPoint x="40" y="510" />
              <mxPoint x="40" y="180" />
              <mxPoint x="330" y="180" />
            </Array>
          </mxGeometry>
        </mxCell>
        <mxCell id="M__xc0VcjDYkkTv1wkbK-14" value="i++;" style="rounded=1;whiteSpace=wrap;html=1;" vertex="1" parent="1">
          <mxGeometry x="90" y="480" width="120" height="60" as="geometry" />
        </mxCell>
        <mxCell id="M__xc0VcjDYkkTv1wkbK-19" value="return true" style="ellipse;whiteSpace=wrap;html=1;" vertex="1" parent="1">
          <mxGeometry x="540" y="200" width="120" height="80" as="geometry" />
        </mxCell>
        <mxCell id="M__xc0VcjDYkkTv1wkbK-29" style="edgeStyle=orthogonalEdgeStyle;rounded=0;orthogonalLoop=1;jettySize=auto;html=1;entryX=0.5;entryY=0;entryDx=0;entryDy=0;strokeColor=#FFFFFF;" edge="1" parent="1" source="M__xc0VcjDYkkTv1wkbK-24" target="M__xc0VcjDYkkTv1wkbK-28">
          <mxGeometry relative="1" as="geometry">
            <Array as="points">
              <mxPoint x="270" y="445" />
              <mxPoint x="290" y="445" />
            </Array>
          </mxGeometry>
        </mxCell>
        <mxCell id="M__xc0VcjDYkkTv1wkbK-30" value="false" style="edgeLabel;html=1;align=center;verticalAlign=middle;resizable=0;points=[];" vertex="1" connectable="0" parent="M__xc0VcjDYkkTv1wkbK-29">
          <mxGeometry x="-0.2929" relative="1" as="geometry">
            <mxPoint as="offset" />
          </mxGeometry>
        </mxCell>
        <mxCell id="M__xc0VcjDYkkTv1wkbK-33" style="edgeStyle=orthogonalEdgeStyle;rounded=0;orthogonalLoop=1;jettySize=auto;html=1;exitX=1;exitY=0.5;exitDx=0;exitDy=0;entryX=0;entryY=0.5;entryDx=0;entryDy=0;strokeColor=#FFFFFF;" edge="1" parent="1" source="M__xc0VcjDYkkTv1wkbK-24" target="M__xc0VcjDYkkTv1wkbK-32">
          <mxGeometry relative="1" as="geometry" />
        </mxCell>
        <mxCell id="M__xc0VcjDYkkTv1wkbK-34" value="true" style="edgeLabel;html=1;align=center;verticalAlign=middle;resizable=0;points=[];" vertex="1" connectable="0" parent="M__xc0VcjDYkkTv1wkbK-33">
          <mxGeometry x="-0.281" relative="1" as="geometry">
            <mxPoint as="offset" />
          </mxGeometry>
        </mxCell>
        <mxCell id="M__xc0VcjDYkkTv1wkbK-24" value="board[i][j] == &quot;.&quot;" style="rhombus;whiteSpace=wrap;html=1;" vertex="1" parent="1">
          <mxGeometry x="270" y="330" width="140" height="80" as="geometry" />
        </mxCell>
        <mxCell id="M__xc0VcjDYkkTv1wkbK-31" style="edgeStyle=orthogonalEdgeStyle;rounded=0;orthogonalLoop=1;jettySize=auto;html=1;entryX=1;entryY=1;entryDx=0;entryDy=0;exitX=0.075;exitY=-0.005;exitDx=0;exitDy=0;exitPerimeter=0;strokeColor=#FFFFFF;" edge="1" parent="1" source="M__xc0VcjDYkkTv1wkbK-28" target="M__xc0VcjDYkkTv1wkbK-10">
          <mxGeometry relative="1" as="geometry">
            <mxPoint x="240" y="440" as="sourcePoint" />
            <Array as="points">
              <mxPoint x="240" y="480" />
              <mxPoint x="240" y="430" />
              <mxPoint x="175" y="430" />
            </Array>
          </mxGeometry>
        </mxCell>
        <mxCell id="M__xc0VcjDYkkTv1wkbK-28" value="j++;" style="rounded=1;whiteSpace=wrap;html=1;" vertex="1" parent="1">
          <mxGeometry x="230" y="480" width="120" height="60" as="geometry" />
        </mxCell>
        <mxCell id="M__xc0VcjDYkkTv1wkbK-36" style="edgeStyle=orthogonalEdgeStyle;rounded=0;orthogonalLoop=1;jettySize=auto;html=1;entryX=0.5;entryY=0;entryDx=0;entryDy=0;strokeColor=#FFFFFF;" edge="1" parent="1" source="M__xc0VcjDYkkTv1wkbK-32" target="M__xc0VcjDYkkTv1wkbK-35">
          <mxGeometry relative="1" as="geometry" />
        </mxCell>
        <mxCell id="M__xc0VcjDYkkTv1wkbK-32" value="char num = &#39;1&#39;;" style="rounded=1;whiteSpace=wrap;html=1;" vertex="1" parent="1">
          <mxGeometry x="470" y="340" width="120" height="60" as="geometry" />
        </mxCell>
        <mxCell id="M__xc0VcjDYkkTv1wkbK-39" style="edgeStyle=orthogonalEdgeStyle;rounded=0;orthogonalLoop=1;jettySize=auto;html=1;entryX=0;entryY=0.5;entryDx=0;entryDy=0;strokeColor=#FFFFFF;" edge="1" parent="1" source="M__xc0VcjDYkkTv1wkbK-35" target="M__xc0VcjDYkkTv1wkbK-38">
          <mxGeometry relative="1" as="geometry" />
        </mxCell>
        <mxCell id="M__xc0VcjDYkkTv1wkbK-40" value="false" style="edgeLabel;html=1;align=center;verticalAlign=middle;resizable=0;points=[];" vertex="1" connectable="0" parent="M__xc0VcjDYkkTv1wkbK-39">
          <mxGeometry x="-0.2367" y="-3" relative="1" as="geometry">
            <mxPoint as="offset" />
          </mxGeometry>
        </mxCell>
        <mxCell id="M__xc0VcjDYkkTv1wkbK-42" style="edgeStyle=orthogonalEdgeStyle;rounded=0;orthogonalLoop=1;jettySize=auto;html=1;exitX=0;exitY=0.5;exitDx=0;exitDy=0;entryX=0.5;entryY=0;entryDx=0;entryDy=0;strokeColor=#FFFFFF;" edge="1" parent="1" source="M__xc0VcjDYkkTv1wkbK-35" target="M__xc0VcjDYkkTv1wkbK-41">
          <mxGeometry relative="1" as="geometry" />
        </mxCell>
        <mxCell id="M__xc0VcjDYkkTv1wkbK-43" value="true" style="edgeLabel;html=1;align=center;verticalAlign=middle;resizable=0;points=[];" vertex="1" connectable="0" parent="M__xc0VcjDYkkTv1wkbK-42">
          <mxGeometry x="-0.2974" y="-1" relative="1" as="geometry">
            <mxPoint as="offset" />
          </mxGeometry>
        </mxCell>
        <mxCell id="M__xc0VcjDYkkTv1wkbK-35" value="num &amp;lt;= &#39;9&#39;" style="rhombus;whiteSpace=wrap;html=1;" vertex="1" parent="1">
          <mxGeometry x="730" y="330" width="140" height="80" as="geometry" />
        </mxCell>
        <mxCell id="M__xc0VcjDYkkTv1wkbK-38" value="return false" style="ellipse;whiteSpace=wrap;html=1;" vertex="1" parent="1">
          <mxGeometry x="940" y="330" width="120" height="80" as="geometry" />
        </mxCell>
        <mxCell id="M__xc0VcjDYkkTv1wkbK-44" style="edgeStyle=orthogonalEdgeStyle;rounded=0;orthogonalLoop=1;jettySize=auto;html=1;" edge="1" parent="1" source="M__xc0VcjDYkkTv1wkbK-41">
          <mxGeometry relative="1" as="geometry">
            <mxPoint x="770" y="480" as="targetPoint" />
          </mxGeometry>
        </mxCell>
        <mxCell id="M__xc0VcjDYkkTv1wkbK-46" style="edgeStyle=orthogonalEdgeStyle;rounded=0;orthogonalLoop=1;jettySize=auto;html=1;exitX=1;exitY=0.5;exitDx=0;exitDy=0;entryX=0;entryY=0.5;entryDx=0;entryDy=0;strokeColor=#FFFFFF;" edge="1" parent="1" source="M__xc0VcjDYkkTv1wkbK-41" target="M__xc0VcjDYkkTv1wkbK-45">
          <mxGeometry relative="1" as="geometry" />
        </mxCell>
        <mxCell id="M__xc0VcjDYkkTv1wkbK-52" value="false" style="edgeLabel;html=1;align=center;verticalAlign=middle;resizable=0;points=[];" vertex="1" connectable="0" parent="M__xc0VcjDYkkTv1wkbK-46">
          <mxGeometry x="-0.3623" y="2" relative="1" as="geometry">
            <mxPoint as="offset" />
          </mxGeometry>
        </mxCell>
        <mxCell id="M__xc0VcjDYkkTv1wkbK-49" style="edgeStyle=orthogonalEdgeStyle;rounded=0;orthogonalLoop=1;jettySize=auto;html=1;exitX=0;exitY=0.5;exitDx=0;exitDy=0;entryX=0.5;entryY=0;entryDx=0;entryDy=0;strokeColor=#FFFFFF;" edge="1" parent="1" source="M__xc0VcjDYkkTv1wkbK-41" target="M__xc0VcjDYkkTv1wkbK-48">
          <mxGeometry relative="1" as="geometry" />
        </mxCell>
        <mxCell id="M__xc0VcjDYkkTv1wkbK-51" value="true" style="edgeLabel;html=1;align=center;verticalAlign=middle;resizable=0;points=[];" vertex="1" connectable="0" parent="M__xc0VcjDYkkTv1wkbK-49">
          <mxGeometry x="0.0348" y="3" relative="1" as="geometry">
            <mxPoint as="offset" />
          </mxGeometry>
        </mxCell>
        <mxCell id="M__xc0VcjDYkkTv1wkbK-41" value="isPossible(board,i,j,num)" style="rhombus;whiteSpace=wrap;html=1;" vertex="1" parent="1">
          <mxGeometry x="580" y="440" width="170" height="80" as="geometry" />
        </mxCell>
        <mxCell id="M__xc0VcjDYkkTv1wkbK-47" style="edgeStyle=orthogonalEdgeStyle;rounded=0;orthogonalLoop=1;jettySize=auto;html=1;entryX=0.5;entryY=1;entryDx=0;entryDy=0;strokeColor=#FFFFFF;" edge="1" parent="1" source="M__xc0VcjDYkkTv1wkbK-45" target="M__xc0VcjDYkkTv1wkbK-35">
          <mxGeometry relative="1" as="geometry" />
        </mxCell>
        <mxCell id="M__xc0VcjDYkkTv1wkbK-45" value="num++;" style="rounded=1;whiteSpace=wrap;html=1;" vertex="1" parent="1">
          <mxGeometry x="810" y="465" width="80" height="30" as="geometry" />
        </mxCell>
        <mxCell id="M__xc0VcjDYkkTv1wkbK-54" style="edgeStyle=orthogonalEdgeStyle;rounded=0;orthogonalLoop=1;jettySize=auto;html=1;exitX=1;exitY=0.5;exitDx=0;exitDy=0;entryX=0.5;entryY=0;entryDx=0;entryDy=0;strokeColor=#FFFFFF;" edge="1" parent="1" source="M__xc0VcjDYkkTv1wkbK-48" target="M__xc0VcjDYkkTv1wkbK-53">
          <mxGeometry relative="1" as="geometry" />
        </mxCell>
        <mxCell id="M__xc0VcjDYkkTv1wkbK-48" value="board[i][j]=num;" style="rounded=1;whiteSpace=wrap;html=1;" vertex="1" parent="1">
          <mxGeometry x="460" y="520" width="120" height="60" as="geometry" />
        </mxCell>
        <mxCell id="M__xc0VcjDYkkTv1wkbK-56" style="edgeStyle=orthogonalEdgeStyle;rounded=0;orthogonalLoop=1;jettySize=auto;html=1;exitX=0;exitY=0.5;exitDx=0;exitDy=0;entryX=0.5;entryY=0;entryDx=0;entryDy=0;strokeColor=#FFFFFF;" edge="1" parent="1" source="M__xc0VcjDYkkTv1wkbK-53" target="M__xc0VcjDYkkTv1wkbK-55">
          <mxGeometry relative="1" as="geometry" />
        </mxCell>
        <mxCell id="M__xc0VcjDYkkTv1wkbK-61" value="true" style="edgeLabel;html=1;align=center;verticalAlign=middle;resizable=0;points=[];" vertex="1" connectable="0" parent="M__xc0VcjDYkkTv1wkbK-56">
          <mxGeometry x="-0.4291" y="-4" relative="1" as="geometry">
            <mxPoint as="offset" />
          </mxGeometry>
        </mxCell>
        <mxCell id="M__xc0VcjDYkkTv1wkbK-58" style="edgeStyle=orthogonalEdgeStyle;rounded=0;orthogonalLoop=1;jettySize=auto;html=1;exitX=1;exitY=0.5;exitDx=0;exitDy=0;entryX=0.5;entryY=0;entryDx=0;entryDy=0;strokeColor=#FFFFFF;" edge="1" parent="1" source="M__xc0VcjDYkkTv1wkbK-53" target="M__xc0VcjDYkkTv1wkbK-57">
          <mxGeometry relative="1" as="geometry" />
        </mxCell>
        <mxCell id="M__xc0VcjDYkkTv1wkbK-60" value="false" style="edgeLabel;html=1;align=center;verticalAlign=middle;resizable=0;points=[];" vertex="1" connectable="0" parent="M__xc0VcjDYkkTv1wkbK-58">
          <mxGeometry x="-0.7041" relative="1" as="geometry">
            <mxPoint as="offset" />
          </mxGeometry>
        </mxCell>
        <mxCell id="M__xc0VcjDYkkTv1wkbK-53" value="solve(board)" style="rhombus;whiteSpace=wrap;html=1;" vertex="1" parent="1">
          <mxGeometry x="590" y="590" width="170" height="80" as="geometry" />
        </mxCell>
        <mxCell id="M__xc0VcjDYkkTv1wkbK-55" value="return true;" style="ellipse;whiteSpace=wrap;html=1;" vertex="1" parent="1">
          <mxGeometry x="480" y="670" width="120" height="80" as="geometry" />
        </mxCell>
        <mxCell id="M__xc0VcjDYkkTv1wkbK-59" style="edgeStyle=orthogonalEdgeStyle;rounded=0;orthogonalLoop=1;jettySize=auto;html=1;exitX=1;exitY=0.5;exitDx=0;exitDy=0;entryX=0.5;entryY=1;entryDx=0;entryDy=0;strokeColor=#FFFFFF;" edge="1" parent="1" source="M__xc0VcjDYkkTv1wkbK-57" target="M__xc0VcjDYkkTv1wkbK-45">
          <mxGeometry relative="1" as="geometry" />
        </mxCell>
        <mxCell id="M__xc0VcjDYkkTv1wkbK-57" value="board[i][j] = &#39;.&#39;;" style="rounded=1;whiteSpace=wrap;html=1;" vertex="1" parent="1">
          <mxGeometry x="710" y="680" width="120" height="60" as="geometry" />
        </mxCell>
      </root>
    </mxGraphModel>
  </diagram>
</mxfile>
